:FULLY-SPECIFIED
:FORCE-ALL-JOINTS-BE-3DOF
:DEGREES
849
root 2.16855 16.3556 26.6059 2.16605 19.8373 382.77
lfemur -36.5754 7.34905 -8.86995
ltibia 37.2429 0 0
lfoot -12.0508 -7.32285 0
ltoes 8.74371 0 0
rfemur -7.62201 -1.64493 12.0865
rtibia 35.3619 0 0
rfoot -13.0892 -14.999 0
rtoes -2.18644 0 0
lowerback 1.98339 3.5002 2.27175
upperback 0.185311 4.7147 -1.54941
thorax -0.456855 2.35531 -2.94105
lowerneck -6.34802 -4.01727 0.536912
upperneck 0.551612 -5.48988 2.86004
head 1.39767 -2.67558 0.617234
lclavicle -6.17016e-14 2.43306e-15 0
lhumerus -57.0774 -16.8874 104.363
lradius 58.6929 0 0
lwrist 17.3701 0 0
lhand 2.99242 8.30798 0
lfingers 7.12502 0 0
lthumb 28.2256 34.1823 0
rclavicle -6.17016e-14 2.43306e-15 0
rhumerus -43.3329 44.6571 -123.183
rradius 88.3836 0 0
rwrist -0.804345 0 0
rhand -9.12902 -19.5376 0
rfingers 7.12502 0 0
rthumb 16.8219 -768.878 0
850
root 2.19265 16.3554 26.7225 2.11205 19.8813 382.635
lfemur -36.3774 7.5332 -8.91118
ltibia 37.4937 0 0
lfoot -12.0055 -7.53015 0
ltoes 8.65271 0 0
rfemur -7.78416 -1.76382 11.7454
rtibia 35.6488 0 0
rfoot -12.6405 -15.1844 0
rtoes -1.48032 0 0
lowerback 1.99176 3.43329 2.16849
upperback 0.184671 4.62259 -1.5752
thorax -0.470616 2.30955 -2.90791
lowerneck -6.35704 -4.08519 0.469854
upperneck 0.62541 -5.57985 2.91166
head 1.42909 -2.71858 0.640363
lclavicle -6.07253e-14 2.79138e-15 0
lhumerus -56.9991 -17.2135 104.515
lradius 58.7121 0 0
lwrist 17.2442 0 0
lhand 3.50112 8.43732 0
lfingers 7.12502 0 0
lthumb 28.7067 34.1919 0
rclavicle -6.07253e-14 2.79138e-15 0
rhumerus -43.6348 44.4777 -123.212
rradius 89.1159 0 0
rwrist -0.901233 0 0
rhand -8.96332 -19.301 0
rfingers 7.12502 0 0
rthumb 16.9815 -768.629 0
851
root 2.21707 16.3556 26.8385 2.05838 19.9182 382.474
lfemur -36.1773 7.71723 -8.95075
ltibia 37.7486 0 0
lfoot -11.9594 -7.73852 0
ltoes 8.56173 0 0
rfemur -7.94897 -1.88366 11.4014
rtibia 35.9388 0 0
rfoot -12.1877 -15.3703 0
rtoes -0.769504 0 0
lowerback 2.00035 3.36561 2.06436
upperback 0.183913 4.52942 -1.60125
thorax -0.484716 2.26325 -2.87453
lowerneck -6.36615 -4.15344 0.40244
upperneck 0.699629 -5.67026 2.96369
head 1.46069 -2.76178 0.66366
lclavicle -5.9739e-14 3.15078e-15 0
lhumerus -56.9159 -17.5423 104.662
lradius 58.731 0 0
lwrist 17.1185 0 0
lhand 4.01183 8.56704 0
lfingers 7.12502 0 0
lthumb 29.1897 34.2012 0
rclavicle -5.9739e-14 3.15078e-15 0
rhumerus -43.9354 44.2921 -123.231
rradius 89.8513 0 0
rwrist -0.999427 0 0
rhand -8.79889 -19.0651 0
rfingers 7.12502 0 0
rthumb 17.1398 -768.381 0
852
root 2.24181 16.356 26.9539 2.00506 19.9481 382.287
lfemur -35.9751 7.90105 -8.98866
ltibia 38.0071 0 0
lfoot -11.9126 -7.94784 0
ltoes 8.4707 0 0
rfemur -8.11635 -2.00441 11.0548
rtibia 36.2318 0 0
rfoot -11.7312 -15.5567 0
rtoes -0.0546153 0 0
lowerback 2.00915 3.2972 1.95943
upperback 0.18304 4.43525 -1.62756
thorax -0.499132 2.21647 -2.84093
lowerneck -6.37535 -4.22196 0.334729
upperneck 0.774224 -5.76105 3.0161
head 1.49246 -2.80516 0.687108
lclavicle -5.87432e-14 3.51101e-15 0
lhumerus -56.8281 -17.8736 104.805
lradius 58.7494 0 0
lwrist 16.9931 0 0
lhand 4.52433 8.6971 0
lfingers 7.12502 0 0
lthumb 29.6744 34.2103 0
rclavicle -5.87432e-14 3.51101e-15 0
rhumerus -44.2343 44.1003 -123.241
rradius 90.5891 0 0
rwrist -1.09886 0 0
rhand -8.63581 -18.8301 0
rfingers 7.12502 0 0
rthumb 17.2969 -768.134 0
853
root 2.26681 16.3566 27.0686 1.95211 19.9712 382.076
lfemur -35.771 8.08456 -9.0249
ltibia 38.2689 0 0
lfoot -11.8652 -8.15796 0
ltoes 8.37954 0 0
rfemur -8.28619 -2.12602 10.7058
rtibia 36.5275 0 0
rfoot -11.2712 -15.7433 0
rtoes 0.663736 0 0
lowerback 2.01813 3.22813 1.85377
upperback 0.182054 4.34016 -1.6541
thorax -0.513844 2.16922 -2.80715
lowerneck -6.38464 -4.2907 0.266782
upperneck 0.849147 -5.85213 3.06885
head 1.52438 -2.84868 0.710686
lclavicle -5.77386e-14 3.87179e-15 0
lhumerus -56.736 -18.2074 104.943
lradius 58.7676 0 0
lwrist 16.868 0 0
lhand 5.03841 8.82747 0
lfingers 7.12502 0 0
lthumb 30.1606 34.219 0
rclavicle -5.77386e-14 3.87179e-15 0
rhumerus -44.5315 43.9027 -123.241
rradius 91.3288 0 0
rwrist -1.19948 0 0
rhand -8.47418 -18.5961 0
rfingers 7.12502 0 0
rthumb 17.4525 -767.888 0
854
root 2.29208 16.3576 27.1828 1.89954 19.9877 381.842
lfemur -35.565 8.26766 -9.05949
ltibia 38.5336 0 0
lfoot -11.8173 -8.36879 0
ltoes 8.28816 0 0
rfemur -8.45838 -2.24842 10.3545
rtibia 36.8257 0 0
rfoot -10.8083 -15.9299 0
rtoes 1.38493 0 0
lowerback 2.02727 3.15843 1.74746
upperback 0.180958 4.24421 -1.68088
thorax -0.528832 2.12155 -2.77323
lowerneck -6.39401 -4.3596 0.198657
upperneck 0.924351 -5.94343 3.1219
head 1.55642 -2.8923 0.734378
lclavicle -5.67258e-14 4.23286e-15 0
lhumerus -56.6396 -18.5434 105.076
lradius 58.7853 0 0
lwrist 16.7434 0 0
lhand 5.55386 8.95813 0
lfingers 7.12502 0 0
lthumb 30.648 34.2275 0
rclavicle -5.67258e-14 4.23286e-15 0
rhumerus -44.8266 43.6992 -123.231
rradius 92.0697 0 0
rwrist -1.3012 0 0
rhand -8.31409 -18.3632 0
rfingers 7.12502 0 0
rthumb 17.6067 -767.644 0
855
root 2.31756 16.3587 27.2962 1.84739 19.9979 381.585
lfemur -35.357 8.45026 -9.09241
ltibia 38.8008 0 0
lfoot -11.7689 -8.58018 0
ltoes 8.19648 0 0
rfemur -8.63282 -2.37159 10.0013
rtibia 37.1262 0 0
rfoot -10.3428 -16.1165 0
rtoes 2.10836 0 0
lowerback 2.03656 3.08816 1.64057
upperback 0.179754 4.14746 -1.70788
thorax -0.544075 2.07348 -2.73918
lowerneck -6.40346 -4.4286 0.130415
upperneck 0.999791 -6.03488 3.17522
head 1.58857 -2.93599 0.758165
lclavicle -5.57055e-14 4.59396e-15 0
lhumerus -56.5393 -18.8814 105.204
lradius 58.8027 0 0
lwrist 16.6193 0 0
lhand 6.07047 9.08904 0
lfingers 7.12502 0 0
lthumb 31.1365 34.2358 0
rclavicle -5.57055e-14 4.59396e-15 0
rhumerus -45.1195 43.4899 -123.211
rradius 92.8112 0 0
rwrist -1.40397 0 0
rhand -8.15563 -18.1317 0
rfingers 7.12502 0 0
rthumb 17.7593 -767.4 0
856
root 2.34325 16.3601 27.4091 1.79566 20.0018 381.307
lfemur -35.1471 8.63224 -9.12368
ltibia 39.0702 0 0
lfoot -11.7202 -8.79201 0
ltoes 8.10442 0 0
rfemur -8.8094 -2.49546 9.64617
rtibia 37.4288 0 0
rfoot -9.87502 -16.3028 0
rtoes 2.83341 0 0
lowerback 2.04596 3.01737 1.53318
upperback 0.178445 4.05 -1.7351
thorax -0.559552 2.02506 -2.70506
lowerneck -6.41297 -4.49764 0.0621155
upperneck 1.07542 -6.1264 3.22877
head 1.62081 -2.9797 0.782028
lclavicle -5.46782e-14 4.9548e-15 0
lhumerus -56.4352 -19.2213 105.329
lradius 58.8197 0 0
lwrist 16.4957 0 0
lhand 6.58803 9.2202 0
lfingers 7.12502 0 0
lthumb 31.6258 34.2438 0
rclavicle -5.46782e-14 4.9548e-15 0
rhumerus -45.4099 43.275 -123.181
rradius 93.5527 0 0
rwrist -1.50773 0 0
rhand -7.99889 -17.9016 0
rfingers 7.12502 0 0
rthumb 17.9102 -767.158 0
857
root 2.36911 16.3617 27.5212 1.74438 19.9996 381.008
lfemur -34.9355 8.81351 -9.15329
ltibia 39.3414 0 0
lfoot -11.6714 -9.00417 0
ltoes 8.0119 0 0
rfemur -8.98802 -2.61999 9.2895
rtibia 37.7333 0 0
rfoot -9.40543 -16.4888 0
rtoes 3.55946 0 0
lowerback 2.05546 2.9461 1.42536
upperback 0.177033 3.95188 -1.76252
thorax -0.575244 1.9763 -2.67089
lowerneck -6.42256 -4.56667 -0.00618228
upperneck 1.15119 -6.21792 3.2825
head 1.65311 -3.02341 0.80595
lclavicle -5.36448e-14 5.31514e-15 0
lhumerus -56.3276 -19.5629 105.449
lradius 58.8363 0 0
lwrist 16.3728 0 0
lhand 7.10633 9.35156 0
lfingers 7.12502 0 0
lthumb 32.1159 34.2517 0
rclavicle -5.36448e-14 5.31514e-15 0
rhumerus -45.6976 43.0547 -123.142
rradius 94.2936 0 0
rwrist -1.6124 0 0
rhand -7.84396 -17.6732 0
rfingers 7.12502 0 0
rthumb 18.0594 -766.918 0
